<svg width="91" height="91" viewBox="0 0 91 91" fill="none" xmlns="http://www.w3.org/2000/svg">
<path d="M83.2001 38.6C79.6761 38.6 76.7651 41.209 76.2791 44.6H58.0941C57.8461 41.593 56.6131 38.797 54.5531 36.576L54.6251 36.648L68.5791 22.694L67.8291 21.944L53.8781 35.895C51.6471 33.801 48.8251 32.545 45.7891 32.294V13.924H45.7681C49.1691 13.447 51.7891 10.533 51.7891 7C51.7891 3.134 48.6551 0 44.7891 0C40.9241 0 37.7891 3.134 37.7891 7C37.7891 10.533 40.4101 13.447 43.8111 13.924H43.7891V32.281C40.5061 32.488 37.4491 33.847 35.1091 36.188C32.8321 38.465 31.4781 41.419 31.2161 44.6H13.0001V45.6V46.6H31.2031C31.4001 49.739 32.6621 52.662 34.8161 54.956L21.0461 68.727C20.0521 67.878 18.8161 67.395 17.4941 67.395C16.0251 67.395 14.6441 67.967 13.6051 69.006C11.4611 71.151 11.4611 74.639 13.6051 76.783C14.6441 77.822 16.0251 78.392 17.4941 78.392C18.9641 78.392 20.3451 77.821 21.3841 76.782C22.4231 75.743 22.9951 74.362 22.9951 72.892C22.9951 71.636 22.5551 70.457 21.7821 69.489L35.5731 55.7C37.8471 57.777 40.7151 58.993 43.7891 59.185V77.275H43.8111C40.4101 77.753 37.7891 80.667 37.7891 84.2C37.7891 88.066 40.9241 91.2 44.7891 91.2C48.6551 91.2 51.7891 88.066 51.7891 84.2C51.7891 80.667 49.1691 77.753 45.7681 77.275H45.7891V59.174C48.7431 58.93 51.4911 57.733 53.6931 55.74L67.4761 69.523L68.2261 68.773L54.4541 55C56.6351 52.697 57.9081 49.758 58.1051 46.6H76.2791C76.7651 49.992 79.6751 52.6 83.2001 52.6C87.0661 52.6 90.2001 49.467 90.2001 45.6C90.2001 41.734 87.0661 38.6 83.2001 38.6ZM56.9451 47.987C56.8571 48.476 56.7341 48.955 56.5901 49.425C56.7361 48.952 56.8571 48.473 56.9451 47.987ZM20.6771 76.076C19.8271 76.926 18.6971 77.394 17.4941 77.394C16.2911 77.394 15.1621 76.925 14.3121 76.077C12.5581 74.323 12.5581 71.467 14.3121 69.713C15.1621 68.863 16.2911 68.395 17.4941 68.395C18.6971 68.395 19.8271 68.864 20.6771 69.713C21.5281 70.563 21.9951 71.693 21.9951 72.895C21.9951 74.098 21.5271 75.227 20.6771 76.076ZM44.2561 54.221C46.3951 54.319 48.4981 53.613 50.1281 52.239C48.4991 53.612 46.4091 54.322 44.2561 54.221ZM49.9591 51.037C48.5441 52.451 46.6611 53.23 44.6551 53.23C42.6491 53.23 40.7651 52.451 39.3521 51.037C37.9381 49.623 37.1591 47.74 37.1591 45.734C37.1591 43.729 37.9371 41.845 39.3511 40.431C40.7651 39.017 42.6491 38.239 44.6551 38.239C46.6611 38.239 48.5451 39.018 49.9591 40.431C52.8831 43.354 52.8831 48.112 49.9591 51.037ZM57.0791 44.6C56.9041 42.675 56.3051 40.782 55.2431 39.09C56.2851 40.745 56.9021 42.625 57.0791 44.6ZM56.0141 50.949C55.7931 51.428 55.5441 51.892 55.2641 52.342C55.5451 51.891 55.7951 51.426 56.0141 50.949ZM56.5741 49.491C56.4231 49.97 56.2401 50.441 56.0321 50.898C56.2411 50.438 56.4241 49.969 56.5741 49.491Z" fill="#FFF8F8"/>
<path d="M6 52.6C9.86599 52.6 13 49.466 13 45.6C13 41.734 9.86599 38.6 6 38.6C2.13401 38.6 -1 41.734 -1 45.6C-1 49.466 2.13401 52.6 6 52.6Z" fill="#FFF8F8"/>
<path d="M72.084 23.805C73.553 23.805 74.934 23.233 75.973 22.195C78.119 20.05 78.119 16.561 75.973 14.417C74.934 13.378 73.553 12.806 72.083 12.806C70.614 12.806 69.232 13.378 68.193 14.417C67.155 15.456 66.583 16.837 66.583 18.306C66.583 19.774 67.155 21.155 68.193 22.195C69.232 23.233 70.614 23.805 72.084 23.805ZM68.9 15.123C69.751 14.273 70.879 13.805 72.083 13.805C73.287 13.805 74.416 14.273 75.266 15.123C77.02 16.877 77.02 19.732 75.266 21.487C74.416 22.337 73.287 22.804 72.084 22.804C70.881 22.804 69.751 22.336 68.9 21.487C68.05 20.636 67.583 19.506 67.583 18.305C67.583 17.104 68.051 15.974 68.9 15.123Z" fill="#FFF8F8"/>
<path d="M72.084 67.395C70.614 67.395 69.232 67.967 68.193 69.006C67.155 70.044 66.583 71.426 66.583 72.895C66.583 74.364 67.155 75.746 68.193 76.785C69.232 77.824 70.614 78.395 72.084 78.395C73.555 78.395 74.936 77.823 75.973 76.785C78.118 74.641 78.119 71.151 75.973 69.007C74.936 67.967 73.555 67.395 72.084 67.395ZM75.266 76.077C74.416 76.928 73.287 77.394 72.084 77.394C70.881 77.394 69.751 76.925 68.9 76.077C68.05 75.226 67.583 74.098 67.583 72.894C67.583 71.69 68.051 70.562 68.9 69.711C69.751 68.861 70.879 68.394 72.084 68.394C73.286 68.394 74.416 68.863 75.266 69.711C77.02 71.467 77.02 74.322 75.266 76.077Z" fill="#FFF8F8"/>
<path d="M17.4941 23.805C18.6671 23.805 19.7751 23.427 20.7061 22.752L34.6021 36.648L35.3521 35.898L21.5031 22.049C22.4591 21.027 22.9951 19.71 22.9951 18.306C22.9951 16.837 22.4231 15.455 21.3841 14.416C20.3461 13.377 18.9651 12.806 17.4951 12.806C16.0251 12.806 14.6431 13.378 13.6051 14.416C12.5681 15.453 11.9971 16.834 11.9971 18.305C11.9971 19.776 12.5681 21.157 13.6051 22.194C14.6431 23.233 16.0241 23.805 17.4941 23.805ZM14.3121 15.123C15.1621 14.273 16.2911 13.806 17.4951 13.806C18.6971 13.806 19.8271 14.274 20.6771 15.123C21.5281 15.973 21.9951 17.103 21.9951 18.306C21.9951 19.507 21.5261 20.637 20.6771 21.488C19.8271 22.338 18.6981 22.805 17.4941 22.805C16.2921 22.805 15.1621 22.337 14.3121 21.488C13.4631 20.64 12.9971 19.509 12.9971 18.306C12.9971 17.103 13.4641 15.972 14.3121 15.123Z" fill="#FFF8F8"/>
</svg>
