<svg width="101" height="81" viewBox="0 0 101 81" fill="none" xmlns="http://www.w3.org/2000/svg">
<path d="M50.5682 39.836L63.1123 32.7084H38.665L50.5682 39.836Z" fill="#FFF8F8"/>
<path d="M38.665 33.5114V51.6099C38.665 52.0136 38.9492 52.3403 39.2974 52.3403H62.3145C62.6636 52.3403 62.946 52.0116 62.946 51.6099V33.9292L50.7943 41.9595L38.665 33.5114Z" fill="#FFF8F8"/>
<path d="M67.8124 4.34753H33.963C32.1377 4.34753 30.6528 6.0648 30.6528 8.17582V76.8746C30.6528 78.9846 32.1377 80.7029 33.963 80.7029H67.8124C69.6377 80.7029 71.1226 78.9866 71.1226 76.8746V8.17482C71.1234 6.06481 69.6377 4.34753 67.8124 4.34753ZM53.0678 77.9968H48.7076V74.6714L50.9055 72.0414L53.0678 74.6734V77.9968ZM33.963 70.6528V8.17482H67.8124L67.8141 70.6528H33.963Z" fill="#FFF8F8"/>
<path d="M49.3545 74.973V77.2504H52.4221V74.973L50.9035 73.1215L49.3545 74.973Z" fill="#FFF8F8"/>
<path d="M24.4052 14.5388V2.76441C24.4052 1.64328 23.6177 0.732545 22.6492 0.732545H2.35063C1.38209 0.731543 0.59375 1.64228 0.59375 2.76441V19.2147C0.59375 20.3359 1.38209 21.2466 2.35063 21.2466H18.9734L27.1349 27.4204C27.2727 27.5246 27.4312 27.5767 27.588 27.5767C27.7725 27.5767 27.9579 27.5045 28.1095 27.3633C28.3885 27.1007 28.4898 26.6599 28.359 26.2722L24.4052 14.5388ZM20.0884 19.8019C20.0866 19.7978 20.0849 19.7948 20.0832 19.7908C19.9324 19.5053 19.6656 19.331 19.3762 19.331H2.35063C2.29519 19.331 2.2484 19.2779 2.2484 19.2127V2.76441C2.2484 2.69929 2.29519 2.64619 2.35063 2.64619H22.6492C22.7046 2.64619 22.7505 2.69829 22.7505 2.76441V14.7202C22.7505 14.8394 22.7696 14.9566 22.8068 15.0678L25.8779 24.1822L20.0884 19.8019Z" fill="#FFF8F8"/>
<path d="M98.6477 30.6141H78.3492C77.3806 30.6141 76.594 31.5269 76.594 32.647V44.4234L72.641 56.1538C72.5102 56.5415 72.6116 56.9823 72.8905 57.2448C73.0421 57.3881 73.2275 57.4583 73.4121 57.4583C73.5715 57.4583 73.7274 57.4072 73.8651 57.302L82.0266 51.1302H98.6494C99.6188 51.1302 100.405 50.2165 100.405 49.0973V32.647C100.405 31.5279 99.6171 30.6141 98.6477 30.6141ZM98.7499 49.0973C98.7499 49.1615 98.7031 49.2166 98.6477 49.2166H81.6221C81.3327 49.2166 81.065 49.3899 80.9152 49.6764C80.9134 49.6784 80.9117 49.6834 80.91 49.6875L75.1196 54.0658L78.1906 44.9504C78.2279 44.8412 78.2478 44.721 78.2478 44.6028V32.647C78.2478 32.5819 78.2937 32.5278 78.3483 32.5278H98.6468C98.7023 32.5278 98.7491 32.5809 98.7491 32.647V49.0973H98.7499Z" fill="#FFF8F8"/>
</svg>
