<svg width="76" height="80" viewBox="0 0 76 80" fill="none" xmlns="http://www.w3.org/2000/svg">
<path d="M74.5133 77.6187H68.0307V74.431C68.0307 74.212 67.8529 74.0341 67.6338 74.0341C67.4147 74.0341 67.2369 74.212 67.2369 74.431V77.6187H60.0932V74.431C60.0932 74.212 59.9154 74.0341 59.6963 74.0341C59.4772 74.0341 59.2994 74.212 59.2994 74.431V77.6187H52.1556V74.431C52.1556 74.212 51.9778 74.0341 51.7588 74.0341C51.5397 74.0341 51.3619 74.212 51.3619 74.431V77.6187H44.2181V74.431C44.2181 74.212 44.0403 74.0341 43.8212 74.0341C43.6022 74.0341 43.4244 74.212 43.4244 74.431V77.6187H36.2806V74.431C36.2806 74.212 36.1028 74.0341 35.8837 74.0341C35.6646 74.0341 35.4868 74.212 35.4868 74.431V77.6187H28.343V74.431C28.343 74.212 28.1652 74.0341 27.9462 74.0341C27.7271 74.0341 27.5493 74.212 27.5493 74.431V77.6187H20.4055V74.431C20.4055 74.212 20.2277 74.0341 20.0086 74.0341C19.7896 74.0341 19.6118 74.212 19.6118 74.431V77.6187H12.468V74.431C12.468 74.212 12.2902 74.0341 12.0711 74.0341C11.852 74.0341 11.6742 74.212 11.6742 74.431V77.6187H2.67862V63.1994H6.51562C6.73391 63.1994 6.9125 63.0208 6.9125 62.8025C6.9125 62.5843 6.73391 62.4057 6.51562 62.4057H2.67862V55.2619H6.51562C6.73391 55.2619 6.9125 55.0833 6.9125 54.865C6.9125 54.6467 6.73391 54.4681 6.51562 54.4681H2.67862V47.3244H6.51562C6.73391 47.3244 6.9125 47.1458 6.9125 46.9275C6.9125 46.7092 6.73391 46.5306 6.51562 46.5306H2.67862V39.3868H6.51562C6.73391 39.3868 6.9125 39.209 6.9125 38.9899C6.9125 38.7709 6.73391 38.5931 6.51562 38.5931H2.67862V31.4493H6.51562C6.73391 31.4493 6.9125 31.2715 6.9125 31.0524C6.9125 30.8333 6.73391 30.6555 6.51562 30.6555H2.67862V23.5118H6.51562C6.73391 23.5118 6.9125 23.334 6.9125 23.1149C6.9125 22.8958 6.73391 22.718 6.51562 22.718H2.67862V15.5742H6.51562C6.73391 15.5742 6.9125 15.3964 6.9125 15.1774C6.9125 14.9583 6.73391 14.7805 6.51562 14.7805H2.67862V7.6367H6.51562C6.73391 7.6367 6.9125 7.4589 6.9125 7.23982C6.9125 7.02075 6.73391 6.84295 6.51562 6.84295H2.67862V1.19063C2.67862 0.533402 2.14522 0 1.48799 0C0.830765 0 0.297363 0.533402 0.297363 1.19063V78.8094C0.297363 79.4666 0.830765 80 1.48799 80H74.5133C75.1705 80 75.7039 79.4666 75.7039 78.8094C75.7039 78.1521 75.1705 77.6187 74.5133 77.6187Z" fill="#FFF8F8"/>
<path d="M33.8957 26.7216L50.7558 34.9171L72.8237 20.6303L72.4364 28.3591L74.0223 28.4385L74.5462 17.9776L63.282 17.426L63.2034 19.0119L71.7545 19.4302L50.6439 33.0978L33.3726 24.7023L22.314 40.4718L9.81957 33.3185L9.02979 34.6964L22.7831 42.5697L33.8957 26.7216Z" fill="white"/>
<path d="M72.7052 45.1154L75.5889 35.0466L64.7431 31.9542L64.3073 33.4806L72.3441 35.7721L51.2461 45.1852L38.0484 32.9702L19.7984 47.0188L9.9503 45.3408L9.68359 46.9061L20.2183 48.7L37.9523 35.0458L50.9365 47.0609L73.3609 37.0564L71.1796 44.6788L72.7052 45.1154Z" fill="white"/>
</svg>
