<svg width="38" height="25" viewBox="0 0 38 25" fill="none" xmlns="http://www.w3.org/2000/svg">
<path d="M22.7074 12.0254C22.0217 11.7299 22.0217 10.6012 21.9792 9.81528C21.8077 7.01568 22.6649 2.74163 21.6363 0.924486C20.9081 -0.156997 17.3932 -0.0579657 15.251 0.089795C14.6503 0.188826 13.9221 0.335016 13.4078 0.630538C12.8936 0.926059 12.3793 1.4165 12.3793 1.85821C12.3793 2.49641 13.6657 2.39895 14.1361 3.23364C14.6503 4.11863 14.6503 6.03323 14.6503 7.60515C14.6503 9.4223 14.3925 11.8305 13.7507 11.9279C12.7647 11.9767 12.2079 10.8465 11.6936 10.0118C10.665 8.39112 9.63646 6.37591 8.86436 4.41101C8.47899 3.37983 8.26368 2.24962 7.70689 1.80791C6.84976 1.1194 5.30692 1.07068 3.80659 1.11941C2.43518 1.16813 0.463094 0.971645 0.0777271 1.90537C-0.222612 2.93655 0.42058 3.919 0.763433 4.75526C2.52021 9.12678 4.4059 12.9591 6.72084 16.5934C8.86436 19.9825 10.8776 22.6846 14.8204 24.1088C15.9354 24.5017 20.8203 25.632 21.8064 24.1088C22.1492 23.5193 22.0642 22.1926 22.2356 21.2101C22.407 20.2277 22.621 19.2452 23.4356 19.1965C24.1213 19.1478 24.5067 19.8347 24.9359 20.3267C25.4077 20.8675 25.7931 21.3092 26.1359 21.8012C26.9505 22.7349 27.8077 24.0113 28.8362 24.5033C30.2501 25.1918 32.4362 24.9953 34.4933 24.8963C36.165 24.8476 37.365 24.4546 37.4939 23.3244C37.5803 22.4394 36.7218 21.163 36.2076 20.4258C34.9212 18.6086 34.3219 18.0679 32.8641 16.3969C32.2209 15.6597 31.4063 14.8737 31.4063 13.9903C31.3637 13.4496 31.7491 12.9591 32.092 12.4184C33.5923 9.86401 35.0926 8.04687 36.464 5.39346C36.8494 4.6075 37.7504 2.79036 37.4075 1.90537C37.0222 0.922915 34.8787 1.21686 33.5498 1.21686C31.8355 1.21686 29.607 1.0691 29.1777 1.46208C28.3631 2.10028 28.0202 3.13304 27.6349 4.11549C26.7777 6.37591 25.6203 8.68349 24.4203 10.4032C23.991 10.9926 23.1778 12.2203 22.706 12.0238L22.7074 12.0254Z" fill="white"/>
</svg>
