<svg width="36" height="25" viewBox="0 0 36 25" fill="none" xmlns="http://www.w3.org/2000/svg">
<path fill-rule="evenodd" clip-rule="evenodd" d="M14.2651 17.1181V7.09696C17.8226 8.77094 20.5778 10.388 23.8365 12.1315C21.1488 13.622 17.8226 15.2945 14.2651 17.1181ZM34.0911 2.11301C33.4774 1.30451 32.4315 0.675158 31.318 0.466801C28.0451 -0.154716 7.62676 -0.156484 4.35563 0.466801C3.46269 0.634194 2.66756 1.03881 1.98452 1.66745C-0.893504 4.3387 0.00833246 18.6637 0.702048 20.9842C0.993762 21.9886 1.37087 22.713 1.8458 23.1884C2.45769 23.8171 3.29547 24.2499 4.25778 24.444C6.95259 25.0014 20.8358 25.3131 31.2611 24.5277C32.2216 24.3603 33.0718 23.9135 33.7424 23.2582C36.4034 20.5976 36.222 5.46809 34.0911 2.11301Z" fill="white"/>
</svg>
